# Blender v3.2.2 OBJ File: ''
# www.blender.org
mtllib Slicer.mtl
o Cylinder
v 1.000000 -28.911224 -0.050000
v 1.000000 -28.911224 0.050000
v 0.980785 -29.106316 -0.050000
v 0.980785 -29.106316 0.050000
v 0.923880 -29.293907 -0.050000
v 0.923880 -29.293907 0.050000
v 0.831470 -29.466795 -0.050000
v 0.831470 -29.466795 0.050000
v 0.707107 -29.618332 -0.050000
v 0.707107 -29.618332 0.050000
v 0.555570 -29.742695 -0.050000
v 0.555570 -29.742695 0.050000
v 0.382684 -29.835104 -0.050000
v 0.382684 -29.835104 0.050000
v 0.195090 -29.892010 -0.050000
v 0.195090 -29.892010 0.050000
v 0.000000 -29.911224 -0.050000
v 0.000000 -29.911224 0.050000
v -0.195090 -29.892010 -0.050000
v -0.195090 -29.892010 0.050000
v -0.382683 -29.835104 -0.050000
v -0.382683 -29.835104 0.050000
v -0.555570 -29.742695 -0.050000
v -0.555570 -29.742695 0.050000
v -0.707107 -29.618332 -0.050000
v -0.707107 -29.618332 0.050000
v -0.831470 -29.466795 -0.050000
v -0.831470 -29.466795 0.050000
v -0.923880 -29.293907 -0.050000
v -0.923880 -29.293907 0.050000
v -0.980785 -29.106316 -0.050000
v -0.980785 -29.106316 0.050000
v -1.000000 -28.911224 -0.050000
v -1.000000 -28.911224 0.050000
v -0.988927 -28.798801 0.050000
v -0.988927 -28.798801 -0.050000
v 0.988927 -28.798801 0.050000
v 0.885998 -28.924221 0.050000
v -0.885998 -28.924221 0.050000
v -0.696124 -29.080048 0.050000
v 0.696124 -29.080048 0.050000
v -0.479498 -29.195835 0.050000
v -0.000000 -29.291214 0.050000
v -0.244446 -29.267138 0.050000
v 0.244446 -29.267138 0.050000
v 0.479499 -29.195835 0.050000
v 0.988927 -28.798801 -0.050000
v 0.885998 -28.924221 -0.050000
v -0.885998 -28.924221 -0.050000
v -0.696124 -29.080048 -0.050000
v 0.696124 -29.080048 -0.050000
v -0.000000 -29.291214 -0.050000
v 0.244446 -29.267138 -0.050000
v -0.479498 -29.195835 -0.050000
v -0.244446 -29.267138 -0.050000
v 0.479499 -29.195835 -0.050000
v -0.220000 0.445934 0.050000
v -0.220000 0.445934 -0.050000
v 0.220000 0.445934 0.050000
v 0.220000 0.445934 -0.050000
v -0.000000 -29.291214 0.050000
v -0.000000 -29.291214 -0.050000
v -0.220000 -29.269545 0.050000
v -0.220000 -29.269545 -0.050000
v 0.220000 -29.269545 -0.050000
v 0.220000 -29.269545 0.050000
vt 1.000000 0.500000
vt 1.000000 1.000000
vt 0.968750 1.000000
vt 0.968750 0.500000
vt 0.937500 1.000000
vt 0.937500 0.500000
vt 0.906250 1.000000
vt 0.906250 0.500000
vt 0.875000 1.000000
vt 0.875000 0.500000
vt 0.843750 1.000000
vt 0.843750 0.500000
vt 0.812500 1.000000
vt 0.812500 0.500000
vt 0.781250 1.000000
vt 0.781250 0.500000
vt 0.750000 1.000000
vt 0.750000 0.500000
vt 0.718750 1.000000
vt 0.718750 0.500000
vt 0.687500 1.000000
vt 0.687500 0.500000
vt 0.656250 1.000000
vt 0.656250 0.500000
vt 0.625000 1.000000
vt 0.625000 0.500000
vt 0.593750 1.000000
vt 0.593750 0.500000
vt 0.562500 1.000000
vt 0.562500 0.500000
vt 0.531250 1.000000
vt 0.531250 0.500000
vt 0.500000 1.000000
vt 0.500000 0.500000
vt 0.481992 0.500000
vt 0.481992 1.000000
vt 0.223019 0.012657
vt 0.250000 0.010000
vt 0.296822 0.014612
vt 0.341844 0.028269
vt 0.383337 0.050447
vt 0.419706 0.080294
vt 0.449553 0.116663
vt 0.471731 0.158156
vt 0.485388 0.203178
vt 0.490000 0.250000
vt 0.485388 0.296822
vt 0.471731 0.341844
vt 0.449553 0.383337
vt 0.419706 0.419706
vt 0.383337 0.449553
vt 0.341844 0.471731
vt 0.296822 0.485388
vt 0.250000 0.490000
vt 0.223019 0.487343
vt 0.253119 0.462639
vt 0.290518 0.417070
vt 0.318307 0.365080
vt 0.335419 0.308667
vt 0.341197 0.250000
vt 0.335419 0.191333
vt 0.318307 0.134920
vt 0.290518 0.082930
vt 0.253119 0.037361
vt 0.018008 1.000000
vt 0.000000 1.000000
vt 0.000000 0.500000
vt 0.018008 0.500000
vt 0.723019 0.487343
vt 0.750000 0.490000
vt 0.796822 0.485388
vt 0.841844 0.471731
vt 0.883337 0.449553
vt 0.919706 0.419706
vt 0.949553 0.383337
vt 0.971731 0.341844
vt 0.985388 0.296822
vt 0.990000 0.250000
vt 0.985388 0.203178
vt 0.971731 0.158156
vt 0.949553 0.116663
vt 0.919706 0.080294
vt 0.883337 0.050447
vt 0.841844 0.028269
vt 0.796822 0.014612
vt 0.750000 0.010000
vt 0.723019 0.012657
vt 0.753119 0.037361
vt 0.790518 0.082930
vt 0.818307 0.134920
vt 0.835419 0.191333
vt 0.841197 0.250000
vt 0.835419 0.308667
vt 0.818307 0.365080
vt 0.790518 0.417070
vt 0.753119 0.462639
vt 0.875000 0.550477
vt 0.875000 0.949523
vt 0.895642 0.949523
vt 0.895642 0.550477
vt 0.843750 0.949523
vt 0.843750 0.550477
vt 0.812500 0.949523
vt 0.812500 0.550477
vt 0.781250 0.949523
vt 0.781250 0.550477
vt 0.750000 0.949523
vt 0.750000 0.550477
vt 0.718750 0.949523
vt 0.718750 0.550477
vt 0.687500 0.949523
vt 0.687500 0.550477
vt 0.656250 0.949523
vt 0.656250 0.550477
vt 0.625000 0.949523
vt 0.625000 0.550477
vt 0.604358 0.949523
vt 0.604358 0.550477
vt 0.625000 0.000000
vt 0.625000 0.250000
vt 0.377371 0.250000
vt 0.377371 0.000000
vt 0.625000 0.500000
vt 0.377371 0.500000
vt 0.377190 0.375000
vt 0.625000 0.750000
vt 0.377371 0.750000
vt 0.625000 1.000000
vt 0.377371 1.000000
vt 0.377190 0.875000
vt 0.875000 0.500000
vt 0.875000 0.750000
vt 0.750000 0.949523
vt 0.750000 0.550477
vt 0.778125 0.550477
vt 0.778125 0.949523
vt 0.721875 0.949523
vt 0.721875 0.550477
vn 0.9952 -0.0980 0.0000
vn 0.9569 -0.2903 0.0000
vn 0.8819 -0.4714 0.0000
vn 0.7730 -0.6344 0.0000
vn 0.6344 -0.7730 0.0000
vn 0.4714 -0.8819 0.0000
vn 0.2903 -0.9569 0.0000
vn 0.0980 -0.9952 0.0000
vn -0.0980 -0.9952 0.0000
vn -0.2903 -0.9569 0.0000
vn -0.4714 -0.8819 0.0000
vn -0.6344 -0.7730 0.0000
vn -0.7730 -0.6344 0.0000
vn -0.8819 -0.4714 0.0000
vn -0.9569 -0.2903 0.0000
vn -0.9952 -0.0980 0.0000
vn -0.9952 0.0980 0.0000
vn -0.0000 -0.0000 1.0000
vn 0.9952 0.0980 0.0000
vn 0.0000 0.0000 -1.0000
vn -0.7730 0.6344 0.0000
vn -0.6344 0.7730 0.0000
vn -0.4714 0.8819 0.0000
vn -0.2903 0.9569 0.0000
vn -0.0980 0.9952 0.0000
vn 0.0980 0.9952 0.0000
vn 0.2903 0.9569 0.0000
vn 0.4714 0.8819 0.0000
vn 0.6344 0.7730 0.0000
vn 0.7730 0.6344 0.0000
vn -1.0000 0.0000 0.0000
vn 1.0000 0.0000 0.0000
vn -0.0000 1.0000 0.0000
usemtl (null)
s off
f 1/1/1 2/2/1 4/3/1 3/4/1
f 3/4/2 4/3/2 6/5/2 5/6/2
f 5/6/3 6/5/3 8/7/3 7/8/3
f 7/8/4 8/7/4 10/9/4 9/10/4
f 9/10/5 10/9/5 12/11/5 11/12/5
f 11/12/6 12/11/6 14/13/6 13/14/6
f 13/14/7 14/13/7 16/15/7 15/16/7
f 15/16/8 16/15/8 18/17/8 17/18/8
f 17/18/9 18/17/9 20/19/9 19/20/9
f 19/20/10 20/19/10 22/21/10 21/22/10
f 21/22/11 22/21/11 24/23/11 23/24/11
f 23/24/12 24/23/12 26/25/12 25/26/12
f 25/26/13 26/25/13 28/27/13 27/28/13
f 27/28/14 28/27/14 30/29/14 29/30/14
f 29/30/15 30/29/15 32/31/15 31/32/15
f 31/32/16 32/31/16 34/33/16 33/34/16
f 36/35/17 33/34/17 34/33/17 35/36/17
f 35/37/18 34/38/18 32/39/18 30/40/18 28/41/18 26/42/18 24/43/18 22/44/18 20/45/18 18/46/18 16/47/18 14/48/18 12/49/18 10/50/18 8/51/18 6/52/18 4/53/18 2/54/18 37/55/18 38/56/18 41/57/18 46/58/18 45/59/18 43/60/18 44/61/18 42/62/18 40/63/18 39/64/18
f 37/65/19 2/66/19 1/67/19 47/68/19
f 47/69/20 1/70/20 3/71/20 5/72/20 7/73/20 9/74/20 11/75/20 13/76/20 15/77/20 17/78/20 19/79/20 21/80/20 23/81/20 25/82/20 27/83/20 29/84/20 31/85/20 33/86/20 36/87/20 49/88/20 50/89/20 54/90/20 55/91/20 52/92/20 53/93/20 56/94/20 51/95/20 48/96/20
f 48/97/21 38/98/21 37/99/21 47/100/21
f 41/101/22 38/98/22 48/97/22 51/102/22
f 46/103/23 41/101/23 51/102/23 56/104/23
f 45/105/24 46/103/24 56/104/24 53/106/24
f 43/107/25 45/105/25 53/106/25 52/108/25
f 44/109/26 43/107/26 52/108/26 55/110/26
f 42/111/27 44/109/27 55/110/27 54/112/27
f 40/113/28 42/111/28 54/112/28 50/114/28
f 39/115/29 40/113/29 50/114/29 49/116/29
f 35/117/30 39/115/30 49/116/30 36/118/30
f 57/119/31 58/120/31 64/121/31 63/122/31
f 58/120/20 60/123/20 65/124/20 62/125/20 64/121/20
f 65/124/32 60/123/32 59/126/32 66/127/32
f 66/127/18 59/126/18 57/128/18 63/129/18 61/130/18
f 60/123/33 58/131/33 57/132/33 59/126/33
f 61/133/8 62/134/8 65/135/8 66/136/8
f 62/134/9 61/133/9 63/137/9 64/138/9
